<?xml version="1.0" encoding="utf-8"?>
<!-- Generator: Adobe Illustrator 23.0.1, SVG Export Plug-In . SVG Version: 6.00 Build 0)  -->
<svg version="1.1" id="Layer_1" xmlns="http://www.w3.org/2000/svg" xmlns:xlink="http://www.w3.org/1999/xlink" x="0px" y="0px"
	 viewBox="0 0 37.64 34" style="enable-background:new 0 0 37.64 34;" xml:space="preserve">
<style type="text/css">
	.st0{fill:#8C8C8C;}
</style>
<g>
	<g>
		<path class="st0" d="M33.27,21.06H4.37c-2.24,0-4.06-1.82-4.06-4.06v0c0-2.24,1.82-4.06,4.06-4.06h28.91
			c2.24,0,4.06,1.82,4.06,4.06v0C37.34,19.24,35.52,21.06,33.27,21.06z"/>
	</g>
	<g>
		<path class="st0" d="M20.13,6.98L7.24,19.87c-1.59,1.59-4.16,1.59-5.74,0l0,0c-1.59-1.59-1.59-4.16,0-5.74L14.39,1.24
			c1.59-1.59,4.16-1.59,5.74,0l0,0C21.72,2.82,21.72,5.39,20.13,6.98z"/>
	</g>
	<g>
		<path class="st0" d="M14.39,32.76L1.5,19.87c-1.59-1.59-1.59-4.16,0-5.74l0,0c1.59-1.59,4.16-1.59,5.74,0l12.89,12.89
			c1.59,1.59,1.59,4.16,0,5.74l0,0C18.55,34.35,15.97,34.35,14.39,32.76z"/>
	</g>
</g>
</svg>
