<?xml version="1.0" encoding="utf-8"?>
<!-- Generator: Adobe Illustrator 23.0.1, SVG Export Plug-In . SVG Version: 6.00 Build 0)  -->
<svg version="1.1" id="Layer_1" xmlns="http://www.w3.org/2000/svg" xmlns:xlink="http://www.w3.org/1999/xlink" x="0px" y="0px"
	 viewBox="0 0 512 512" style="enable-background:new 0 0 512 512;" xml:space="preserve">
<style type="text/css">
	.st0{fill:#1C75BA;}
</style>
<g>
	<g>
		<path class="st0" d="M481,185.9c1.1-6.2,1.7-12.6,1.7-19.1c0-53.5-38.3-98.1-89-107.8c-19.3-31.6-54-52.6-93.7-52.6
			c-30.9,0-58.9,12.8-78.8,33.4c-13.2,1.8-25.6,5.9-36.9,11.9c-23.4,4-44.2,15.5-60,31.8c-53.6,7.2-94.9,53.2-94.9,108.8
			c0,0.5,0,0.9,0,1.4C11.6,206.2,0,226.9,0,250.3c0,38.4,31.1,69.5,69.5,69.5c4.4,0,8.6-0.4,12.8-1.2c1,1.3,2.1,2.6,3.1,3.8
			c0.1,0.1,0.2,0.3,0.3,0.4c0.3,0.4,0.7,0.8,1,1.1c0.3,0.3,0.6,0.7,0.9,1h0c16.7,18.2,40.7,29.7,67.4,29.7c6.2,0,12.3-0.6,18.2-1.8
			l-23.8,67.5H192l-21.3,85.3L320,356.3h-42.7l4.6-6.9c19.4-1.4,37.1-8.9,51.3-20.5c12.2,10.5,28,16.8,45.3,16.8
			c24.8,0,46.6-13,58.9-32.6c1.7,0.1,3.4,0.2,5.1,0.2c38.4,0,69.5-31.1,69.5-69.5C512,219.6,499.7,198.4,481,185.9z M210,436.1
			l2.6-10.6l6.6-26.5H192h-12.5l19.6-55.7c6.8-3.8,13.1-8.4,18.8-13.8c11.3,9,24.7,15.5,39.4,18.4l-19.8,29.7h31L210,436.1z
			 M378.5,324.4c-11.5,0-22.5-4.1-31.2-11.5c-10.3-8.8-16.9-22-16.9-36.6c0-5.6,1-10.9,2.7-15.9h-22.2c-1.2,5.1-1.8,10.4-1.8,15.9
			c0,13.3,3.8,25.8,10.3,36.4c-12.6,10.3-27.9,15.7-44.2,15.7c-16.1,0-31.3-5.3-43.9-15.4l-14.5-11.7l-13.5,12.9
			c-13.1,12.4-30.2,19.3-48.2,19.3c-11.1,0-21.7-2.5-31.5-7.5c-9.4-4.7-17.7-11.7-24.2-20.1l-1-1.3c-8.8-11.9-13.5-26.3-13.5-41.3
			c0-12.4,3.2-24.3,9.2-34.8H70.3c-4.4,10.7-6.9,22.5-6.9,34.8c0,12.6,2.5,24.5,7.1,35.5c-0.3,0-0.7,0-1,0
			c-26.6,0-48.2-21.6-48.2-48.2c0-15.6,7.6-30.3,20.3-39.3l9.1-6.5l-0.1-11.2l0-0.6c0-0.2,0-0.4,0-0.6c0-23.6,9.2-45.8,25.9-62.5
			s38.9-25.9,62.5-25.9c2.4,0,4.8,0.1,7.2,0.3l6.9,0.6c18.3,2.9,35.1,11.5,48.5,24.8c4.2,4.2,7.9,8.7,11.1,13.5h24.6
			c-13.2-26.3-36.7-46.6-65.2-55.6c6.8-7.1,14.8-13.1,23.6-17.5c12.5-6.4,26-9.7,40.2-9.7c15.4,0,30.6,4,43.9,11.7
			c9.7,5.6,18.3,12.9,25.2,21.6c0,0,0,0,0.1,0.1c1.7,2.1,3.2,4.2,4.7,6.4c0.1,0.1,0.2,0.3,0.3,0.4c0.4,0.6,0.8,1.3,1.3,2
			c7.5,12.2,12,26.1,12.9,40.7h21.4c-0.5-9.1-2-17.9-4.5-26.2c33.4,13,56.4,45.5,56.4,82.5c0,5.2-0.5,10.4-1.3,15.4l-2.4,13.7
			l11.6,7.7c13.4,9,21.5,24,21.5,40.1C426.7,302.8,405,324.4,378.5,324.4z M446.2,291.8c1.2-5,1.8-10.3,1.8-15.6
			c0-24.1-12.3-45.4-31-57.9c1.1-6.2,1.7-12.6,1.7-19.1c0-53.5-38.3-98.1-89-107.8c-16.2-26.5-43.4-45.7-75.3-51.1
			c1.7-1,3.5-2,5.3-3c12.5-6.4,26-9.7,40.2-9.7c15.4,0,30.6,4,43.9,11.6c9.7,5.6,18.3,12.9,25.2,21.6c0,0,0,0,0.1,0.1
			c1.7,2.1,3.2,4.2,4.7,6.4c0.1,0.1,0.2,0.3,0.3,0.4c0.4,0.6,0.8,1.3,1.3,2c7.5,12.3,12,26.2,12.9,40.7h21.4
			c-0.5-9.1-2-17.9-4.5-26.2c33.4,13,56.4,45.5,56.4,82.5c0,5.2-0.5,10.4-1.3,15.4l-2.4,13.7l11.6,7.7c13.4,9,21.5,24,21.5,40.1
			C490.7,269.1,471.1,289.9,446.2,291.8z"/>
	</g>
</g>
</svg>
