<?xml version="1.0" encoding="iso-8859-1"?>
<!-- Generator: Adobe Illustrator 19.0.0, SVG Export Plug-In . SVG Version: 6.00 Build 0)  -->
<svg version="1.1" id="Layer_1" xmlns="http://www.w3.org/2000/svg" xmlns:xlink="http://www.w3.org/1999/xlink" x="0px" y="0px"
	 viewBox="0 0 511.999 511.999" style="enable-background:new 0 0 511.999 511.999;" xml:space="preserve">
<g>
	<g>
		<path d="M481.031,185.906c1.094-6.211,1.656-12.594,1.656-19.117c0-53.539-38.312-98.117-89.031-107.805
			C374.375,27.43,339.609,6.359,299.922,6.359c-30.945,0-58.891,12.812-78.844,33.414c-13.172,1.781-25.609,5.898-36.867,11.922
			c-23.352,4.047-44.172,15.461-59.977,31.781c-53.602,7.242-94.93,53.172-94.93,108.758c0,0.461,0.008,0.922,0.016,1.383
			C11.578,206.211,0,226.93,0,250.344c0,38.406,31.133,69.531,69.531,69.531c4.367,0,8.633-0.406,12.766-1.156
			c1.008,1.297,2.055,2.578,3.125,3.828c0.109,0.125,0.219,0.25,0.328,0.375c0.328,0.375,0.656,0.75,0.984,1.109
			c0.289,0.344,0.578,0.656,0.867,0.969h0.008c16.703,18.219,40.688,29.656,67.352,29.656c6.227,0,12.305-0.625,18.18-1.812
			l-23.805,67.469H192l-21.336,85.328L320,356.312h-42.656l4.562-6.875c19.391-1.422,37.094-8.875,51.25-20.516
			c12.172,10.453,28,16.797,45.312,16.797c24.828,0,46.609-13.031,58.906-32.609c1.688,0.125,3.375,0.203,5.094,0.203
			c38.406,0,69.531-31.141,69.531-69.539C512,219.641,499.703,198.375,481.031,185.906z M210.047,436.094l2.648-10.625l6.625-26.5
			H192h-12.516l19.648-55.688c6.836-3.781,13.141-8.406,18.766-13.766c11.25,9.047,24.68,15.5,39.383,18.422l-19.758,29.703H268.5
			L210.047,436.094z M378.469,324.375c-11.453,0-22.531-4.094-31.234-11.5c-10.328-8.844-16.891-21.969-16.891-36.594
			c0-5.562,0.953-10.914,2.688-15.891h-22.188c-1.188,5.102-1.828,10.422-1.828,15.891c0,13.344,3.766,25.812,10.297,36.406
			c-12.609,10.25-27.859,15.656-44.156,15.656c-16.148,0-31.32-5.344-43.875-15.438l-14.547-11.719l-13.531,12.875
			c-13.07,12.406-30.203,19.25-48.242,19.25c-11.109,0-21.719-2.516-31.539-7.484c-9.391-4.734-17.742-11.688-24.156-20.078
			l-1.031-1.344c-8.75-11.938-13.484-26.25-13.484-41.328c0-12.398,3.203-24.305,9.211-34.773h-23.69
			c-4.414,10.719-6.859,22.461-6.859,34.773c0,12.578,2.547,24.547,7.141,35.453c-0.344,0-0.68,0.016-1.023,0.016
			c-26.578,0-48.195-21.625-48.195-48.203c0-15.586,7.602-30.289,20.336-39.336l9.125-6.477l-0.141-11.188l-0.008-0.555
			c-0.008-0.18-0.008-0.367-0.008-0.555c0-23.617,9.195-45.828,25.898-62.531s38.906-25.898,62.531-25.898
			c2.359,0,4.781,0.102,7.203,0.297l6.914,0.555c18.273,2.906,35.117,11.453,48.453,24.789c4.164,4.164,7.867,8.68,11.07,13.461
			h24.602c-13.188-26.344-36.672-46.625-65.18-55.609c6.828-7.094,14.82-13.07,23.555-17.539
			c12.516-6.414,26.047-9.664,40.234-9.664c15.43,0,30.617,4.031,43.906,11.656c9.688,5.555,18.266,12.922,25.203,21.617
			c0.031,0.023,0.031,0.039,0.062,0.062c1.656,2.07,3.203,4.219,4.672,6.438c0.078,0.133,0.172,0.273,0.266,0.406
			c0.438,0.648,0.844,1.305,1.25,1.969c7.531,12.242,11.969,26.141,12.859,40.727H345.5c-0.469-9.078-2-17.867-4.531-26.234
			c33.438,12.969,56.391,45.484,56.391,82.453c0,5.172-0.453,10.367-1.328,15.43l-2.406,13.711l11.562,7.727
			c13.438,8.977,21.469,23.977,21.469,40.117C426.656,302.75,405.047,324.375,378.469,324.375z M446.234,291.812
			c1.156-5.031,1.766-10.25,1.766-15.641c0-24.133-12.297-45.391-30.969-57.859c1.094-6.211,1.656-12.602,1.656-19.125
			c0-53.531-38.312-98.109-89.031-107.805c-16.219-26.547-43.406-45.672-75.273-51.07c1.734-1.047,3.5-2.039,5.305-2.961
			c12.516-6.406,26.047-9.656,40.234-9.656c15.422,0,30.609,4.031,43.906,11.648c9.688,5.555,18.25,12.922,25.203,21.625
			c0.031,0.016,0.031,0.039,0.062,0.062c1.656,2.07,3.203,4.219,4.672,6.43c0.078,0.141,0.172,0.273,0.266,0.414
			c0.438,0.641,0.844,1.297,1.25,1.953c7.531,12.25,11.969,26.156,12.859,40.742h21.36c-0.469-9.078-2-17.867-4.531-26.234
			c33.438,12.969,56.391,45.477,56.391,82.453c0,5.172-0.453,10.359-1.328,15.43l-2.406,13.703l11.562,7.727
			c13.438,8.984,21.469,23.984,21.469,40.125C490.656,269.078,471.062,289.875,446.234,291.812z"/>
	</g>
</g>
<g>
</g>
<g>
</g>
<g>
</g>
<g>
</g>
<g>
</g>
<g>
</g>
<g>
</g>
<g>
</g>
<g>
</g>
<g>
</g>
<g>
</g>
<g>
</g>
<g>
</g>
<g>
</g>
<g>
</g>
</svg>
