<?xml version="1.0" encoding="utf-8"?>
<!-- Generator: Adobe Illustrator 23.0.1, SVG Export Plug-In . SVG Version: 6.00 Build 0)  -->
<svg version="1.1" id="Capa_1" xmlns="http://www.w3.org/2000/svg" xmlns:xlink="http://www.w3.org/1999/xlink" x="0px" y="0px"
	 viewBox="0 0 35 26" style="enable-background:new 0 0 35 26;" xml:space="preserve">
<g>
	<path d="M21.29,24.29c-0.39,0.39-0.39,1.02,0,1.41C21.49,25.9,21.74,26,22,26s0.51-0.1,0.71-0.29l12-12
		c0.09-0.09,0.17-0.2,0.22-0.33c0.1-0.24,0.1-0.52,0-0.76c-0.05-0.12-0.13-0.23-0.22-0.33l-12-12c-0.39-0.39-1.02-0.39-1.41,0
		s-0.39,1.02,0,1.41L31.59,12H1c-0.55,0-1,0.45-1,1s0.45,1,1,1h30.59L21.29,24.29z"/>
</g>
</svg>
