<svg height="512pt" viewBox="0 -8 512 512" width="512pt" xmlns="http://www.w3.org/2000/svg"><path d="m24 360c-4.425781 0-8-3.574219-8-8v-304c0-4.425781 3.574219-8 8-8s8 3.574219 8 8v304c0 4.425781-3.574219 8-8 8zm0 0"/><path d="m24 56c-4.425781 0-8-3.574219-8-8 0-13.230469 10.769531-24 24-24 4.425781 0 8 3.574219 8 8s-3.574219 8-8 8c-4.414062 0-8 3.585938-8 8 0 4.425781-3.574219 8-8 8zm0 0"/><path d="m488 360c-4.425781 0-8-3.574219-8-8v-304c0-4.425781 3.574219-8 8-8s8 3.574219 8 8v304c0 4.425781-3.574219 8-8 8zm0 0"/><path d="m488 56c-4.425781 0-8-3.574219-8-8 0-4.414062-3.585938-8-8-8-4.425781 0-8-3.574219-8-8s3.574219-8 8-8c13.230469 0 24 10.769531 24 24 0 4.425781-3.574219 8-8 8zm0 0"/><path d="m472 40h-432c-4.425781 0-8-3.574219-8-8s3.574219-8 8-8h432c4.425781 0 8 3.574219 8 8s-3.574219 8-8 8zm0 0"/><path d="m504 384h-496c-4.425781 0-8-3.574219-8-8v-24c0-4.425781 3.574219-8 8-8h496c4.425781 0 8 3.574219 8 8v24c0 4.425781-3.574219 8-8 8zm-488-16h480v-8h-480zm0 0"/><path d="m168 496c-.886719 0-1.808594-.152344-2.6875-.472656-4.167969-1.488282-6.335938-6.0625-4.839844-10.214844l40-112c1.480469-4.167969 6.070313-6.351562 10.214844-4.839844 4.167969 1.488282 6.335938 6.0625 4.839844 10.214844l-40 112c-1.160156 3.273438-4.238282 5.3125-7.527344 5.3125zm0 0"/><path d="m128 496c-.886719 0-1.808594-.152344-2.6875-.472656-4.167969-1.488282-6.335938-6.0625-4.839844-10.214844l40-112c1.480469-4.167969 6.070313-6.351562 10.214844-4.839844 4.167969 1.488282 6.335938 6.0625 4.839844 10.214844l-40 112c-1.160156 3.273438-4.238282 5.3125-7.527344 5.3125zm0 0"/><path d="m168 496h-40c-4.425781 0-8-3.574219-8-8s3.574219-8 8-8h40c4.425781 0 8 3.574219 8 8s-3.574219 8-8 8zm0 0"/><path d="m344 496c-3.289062 0-6.367188-2.039062-7.527344-5.3125l-40-112c-1.496094-4.160156.679688-8.734375 4.839844-10.214844 4.136719-1.503906 8.742188.679688 10.214844 4.839844l40 112c1.496094 4.160156-.679688 8.734375-4.839844 10.214844-.878906.320312-1.800781.472656-2.6875.472656zm0 0"/><path d="m384 496c-3.289062 0-6.367188-2.039062-7.527344-5.3125l-40-112c-1.496094-4.160156.679688-8.734375 4.839844-10.214844 4.136719-1.503906 8.734375.679688 10.214844 4.839844l40 112c1.496094 4.160156-.679688 8.734375-4.839844 10.214844-.878906.320312-1.800781.472656-2.6875.472656zm0 0"/><path d="m384 496h-40c-4.425781 0-8-3.574219-8-8s3.574219-8 8-8h40c4.425781 0 8 3.574219 8 8s-3.574219 8-8 8zm0 0"/><path d="m321.144531 432h-130.289062c-4.421875 0-8-3.574219-8-8s3.578125-8 8-8h130.28125c4.421875 0 8 3.574219 8 8s-3.578125 8-7.992188 8zm0 0"/><path d="m329.710938 456h-147.421876c-4.425781 0-8-3.574219-8-8s3.574219-8 8-8h147.421876c4.425781 0 8 3.574219 8 8s-3.574219 8-8 8zm0 0"/><path d="m288 40h-64c-4.425781 0-8-3.574219-8-8v-24c0-4.425781 3.574219-8 8-8h64c4.425781 0 8 3.574219 8 8v24c0 4.425781-3.574219 8-8 8zm-56-16h48v-8h-48zm0 0"/><path d="m256 264c-39.703125 0-72-32.296875-72-72s32.296875-72 72-72 72 32.296875 72 72-32.296875 72-72 72zm0-128c-30.871094 0-56 25.128906-56 56s25.128906 56 56 56 56-25.128906 56-56-25.128906-56-56-56zm0 0"/><path d="m160 264h-96c-4.425781 0-8-3.574219-8-8v-32c0-4.425781 3.574219-8 8-8h96c4.425781 0 8 3.574219 8 8v32c0 4.425781-3.574219 8-8 8zm-88-16h80v-16h-80zm0 0"/><path d="m160 168h-96c-4.425781 0-8-3.574219-8-8v-32c0-4.425781 3.574219-8 8-8h96c4.425781 0 8 3.574219 8 8v32c0 4.425781-3.574219 8-8 8zm-88-16h80v-16h-80zm0 0"/><path d="m304 104h-96c-4.425781 0-8-3.574219-8-8v-32c0-4.425781 3.574219-8 8-8h96c4.425781 0 8 3.574219 8 8v32c0 4.425781-3.574219 8-8 8zm-88-16h80v-16h-80zm0 0"/><path d="m304 328h-96c-4.425781 0-8-3.574219-8-8v-32c0-4.425781 3.574219-8 8-8h96c4.425781 0 8 3.574219 8 8v32c0 4.425781-3.574219 8-8 8zm-88-16h80v-16h-80zm0 0"/><path d="m159.992188 248c-3.824219 0-7.191407-2.742188-7.871094-6.632812-.761719-4.351563 2.167968-8.496094 6.511718-9.246094l46.046876-8c4.34375-.753906 8.496093 2.167968 9.25 6.511718.75 4.34375-2.167969 8.496094-6.515626 9.246094l-46.046874 8c-.464844.082032-.917969.121094-1.375.121094zm0 0"/><path d="m206.054688 160c-.453126 0-.910157-.039062-1.375-.121094l-46.046876-8c-4.351562-.757812-7.273437-4.894531-6.511718-9.246094.765625-4.351562 4.886718-7.234374 9.246094-6.511718l46.046874 8c4.355469.757812 7.273438 4.894531 6.515626 9.246094-.683594 3.890624-4.058594 6.632812-7.875 6.632812zm0 0"/><path d="m448 264h-96c-4.425781 0-8-3.574219-8-8v-32c0-4.425781 3.574219-8 8-8h96c4.425781 0 8 3.574219 8 8v32c0 4.425781-3.574219 8-8 8zm-88-16h80v-16h-80zm0 0"/><path d="m448 168h-96c-4.425781 0-8-3.574219-8-8v-32c0-4.425781 3.574219-8 8-8h96c4.425781 0 8 3.574219 8 8v32c0 4.425781-3.574219 8-8 8zm-88-16h80v-16h-80zm0 0"/><path d="m352.007812 248c-.457031 0-.910156-.039062-1.375-.121094l-46.046874-8c-4.355469-.757812-7.273438-4.894531-6.515626-9.246094.761719-4.351562 4.898438-7.257812 9.25-6.511718l46.046876 8c4.351562.757812 7.273437 4.894531 6.511718 9.246094-.679687 3.890624-4.046875 6.632812-7.871094 6.632812zm0 0"/><path d="m305.945312 160c-3.824218 0-7.191406-2.742188-7.875-6.632812-.757812-4.351563 2.167969-8.496094 6.515626-9.246094l46.046874-8c4.34375-.730469 8.496094 2.167968 9.246094 6.511718.753906 4.34375-2.167968 8.496094-6.511718 9.246094l-46.046876 8c-.464843.082032-.921874.121094-1.375.121094zm0 0"/><path d="m256 296c-4.425781 0-8-3.574219-8-8v-32c0-4.425781 3.574219-8 8-8s8 3.574219 8 8v32c0 4.425781-3.574219 8-8 8zm0 0"/><path d="m256 136c-4.425781 0-8-3.574219-8-8v-32c0-4.425781 3.574219-8 8-8s8 3.574219 8 8v32c0 4.425781-3.574219 8-8 8zm0 0"/><path d="m288 192h-64c-4.425781 0-8-3.574219-8-8s3.574219-8 8-8h64c4.425781 0 8 3.574219 8 8s-3.574219 8-8 8zm0 0"/><path d="m272 216h-32c-4.425781 0-8-3.574219-8-8s3.574219-8 8-8h32c4.425781 0 8 3.574219 8 8s-3.574219 8-8 8zm0 0"/></svg>