<?xml version="1.0" encoding="utf-8"?>
<!-- Generator: Adobe Illustrator 23.0.1, SVG Export Plug-In . SVG Version: 6.00 Build 0)  -->
<svg version="1.1" id="Layer_1" xmlns="http://www.w3.org/2000/svg" xmlns:xlink="http://www.w3.org/1999/xlink" x="0px" y="0px"
	 viewBox="0 0 131.63 131.63" style="enable-background:new 0 0 131.63 131.63;" xml:space="preserve">
<style type="text/css">
	.st0{fill:#91DC5A;}
</style>
<g>
	<g>
		<g>
			<path class="st0" d="M17.74,44.12h-0.32c-4.1,0-7.44,3.35-7.44,7.44v32.38c0,4.1,3.34,7.44,7.44,7.44h0.32
				c4.1,0,7.44-3.35,7.44-7.44V51.55C25.17,47.47,21.83,44.12,17.74,44.12z"/>
			<path class="st0" d="M28.74,96.43c0,3.76,3.07,6.82,6.83,6.82h7.3v17.49c0,4.11,3.35,7.45,7.44,7.45h0.32
				c4.1,0,7.45-3.35,7.45-7.45v-17.49h10.21v17.49c0,4.11,3.36,7.45,7.45,7.45h0.31c4.1,0,7.44-3.35,7.44-7.45v-17.49h7.31
				c3.76,0,6.83-3.06,6.83-6.82V45.31H28.74V96.43z"/>
			<path class="st0" d="M80.34,14.3l5.8-8.95c0.37-0.56,0.21-1.34-0.36-1.7c-0.56-0.37-1.34-0.22-1.7,0.36l-6.01,9.26
				c-4.51-1.85-9.55-2.89-14.87-2.89c-5.33,0-10.36,1.04-14.88,2.89l-6-9.26c-0.37-0.58-1.15-0.74-1.72-0.36
				c-0.57,0.37-0.74,1.14-0.36,1.7l5.81,8.95c-10.47,5.13-17.53,14.8-17.53,25.89c0,0.68,0.04,1.35,0.1,2.02h69.16
				c0.06-0.67,0.1-1.34,0.1-2.02C97.86,29.1,90.8,19.43,80.34,14.3z M47.15,30.34c-1.84,0-3.33-1.48-3.33-3.32
				c0-1.84,1.49-3.32,3.33-3.32c1.85,0,3.33,1.48,3.33,3.32C50.48,28.86,48.99,30.34,47.15,30.34z M79.22,30.34
				c-1.84,0-3.33-1.48-3.33-3.32c0-1.84,1.49-3.32,3.33-3.32c1.84,0,3.32,1.48,3.32,3.32C82.54,28.86,81.06,30.34,79.22,30.34z"/>
			<path class="st0" d="M108.94,44.12h-0.31c-4.1,0-7.45,3.35-7.45,7.44v32.38c0,4.1,3.36,7.44,7.45,7.44h0.31
				c4.1,0,7.44-3.35,7.44-7.44V51.55C116.39,47.47,113.04,44.12,108.94,44.12z"/>
		</g>
	</g>
</g>
</svg>
