<?xml version="1.0" encoding="utf-8"?>
<!-- Generator: Adobe Illustrator 23.0.1, SVG Export Plug-In . SVG Version: 6.00 Build 0)  -->
<svg version="1.1" id="Layer_1" xmlns="http://www.w3.org/2000/svg" xmlns:xlink="http://www.w3.org/1999/xlink" x="0px" y="0px"
	 viewBox="0 0 131.63 131.63" style="enable-background:new 0 0 131.63 131.63;" xml:space="preserve">
<style type="text/css">
	.st0{fill:#DA4453;}
	.st1{fill:#89216B;}
</style>
<rect x="-44.26" y="63.16" transform="matrix(-1.836970e-16 1 -1 -1.836970e-16 84.3729 47.6907)" class="st0" width="125.2" height="5.74"/>
<rect x="-17.51" y="63.16" transform="matrix(-1.836970e-16 1 -1 -1.836970e-16 111.1291 20.9346)" class="st0" width="125.2" height="5.74"/>
<rect x="35.21" y="63.3" transform="matrix(-1.836970e-16 1 -1 -1.836970e-16 163.9744 -31.645)" class="st0" width="125.2" height="5.74"/>
<rect x="2.08" y="72.8" transform="matrix(-0.7071 0.7071 -0.7071 -0.7071 180.4224 76.6076)" class="st1" width="144.53" height="5.74"/>
<rect x="-16.84" y="53.88" transform="matrix(-0.7071 0.7071 -0.7071 -0.7071 134.7469 57.6881)" class="st1" width="144.53" height="5.74"/>
<rect x="-31.14" y="63.16" transform="matrix(-1.836970e-16 1 -1 -1.836970e-16 97.4979 34.5657)" class="st0" width="125.2" height="5.74"/>
<rect x="22.08" y="63.3" transform="matrix(-1.836970e-16 1 -1 -1.836970e-16 150.8494 -18.52)" class="st0" width="125.2" height="5.74"/>
<rect x="48.84" y="63.3" transform="matrix(-1.836970e-16 1 -1 -1.836970e-16 177.6056 -45.2761)" class="st0" width="125.2" height="5.74"/>
<rect x="-7.56" y="63.16" transform="matrix(-0.7071 0.7071 -0.7071 -0.7071 157.1527 66.9689)" class="st1" width="144.53" height="5.74"/>
</svg>
