<?xml version="1.0" encoding="utf-8"?>
<!-- Generator: Adobe Illustrator 23.0.1, SVG Export Plug-In . SVG Version: 6.00 Build 0)  -->
<svg version="1.1" id="Layer_1" xmlns="http://www.w3.org/2000/svg" xmlns:xlink="http://www.w3.org/1999/xlink" x="0px" y="0px"
	 viewBox="0 0 37.6 34" style="enable-background:new 0 0 37.6 34;" xml:space="preserve">
<style type="text/css">
	.st0{fill:#CCCCCC;}
</style>
<g>
	<g>
		<path class="st0" d="M33.3,21.1H4.4c-2.2,0-4.1-1.8-4.1-4.1l0,0c0-2.2,1.8-4.1,4.1-4.1h28.9c2.2,0,4.1,1.8,4.1,4.1l0,0
			C37.3,19.2,35.5,21.1,33.3,21.1z"/>
	</g>
	<g>
		<path class="st0" d="M20.1,7L7.2,19.9c-1.6,1.6-4.2,1.6-5.7,0l0,0c-1.6-1.6-1.6-4.2,0-5.7L14.4,1.2c1.6-1.6,4.2-1.6,5.7,0l0,0
			C21.7,2.8,21.7,5.4,20.1,7z"/>
	</g>
	<g>
		<path class="st0" d="M14.4,32.8L1.5,19.9c-1.6-1.6-1.6-4.2,0-5.7l0,0c1.6-1.6,4.2-1.6,5.7,0L20.1,27c1.6,1.6,1.6,4.2,0,5.7l0,0
			C18.5,34.3,16,34.3,14.4,32.8z"/>
	</g>
</g>
</svg>
