{"accessors":[{"name":"Cylinder_1_positions","componentType":5126,"count":947,"min":[-0.5,16.666725158691406,-0.5],"max":[0.5,17.666725158691406,0.5],"type":"VEC3","bufferView":0,"byteOffset":0},{"name":"Cylinder_1_normals","componentType":5126,"count":947,"min":[-1.333333969116211,-0.6666669845581055,-1.3333330154418945],"max":[1.333333969116211,0.6666669845581055,1.3333330154418945],"type":"VEC3","bufferView":0,"byteOffset":11364},{"name":"Cylinder_1_texcoords","componentType":5126,"count":947,"min":[0,0],"max":[1,1],"type":"VEC2","bufferView":1,"byteOffset":0},{"name":"Cylinder_1_0_indices","componentType":5123,"count":3456,"min":[0],"max":[656],"type":"SCALAR","bufferView":2,"byteOffset":0},{"name":"Cylinder_1_1_indices","componentType":5123,"count":648,"min":[657],"max":[801],"type":"SCALAR","bufferView":2,"byteOffset":6912},{"name":"Cylinder_1_2_indices","componentType":5123,"count":648,"min":[802],"max":[946],"type":"SCALAR","bufferView":2,"byteOffset":8208}],"asset":{"generator":"obj2gltf","version":"2.0"},"buffers":[{"name":"Model","byteLength":158172,"uri":"data:application/octet-stream;base64,"}],"bufferViews":[{"name":"bufferView_0","buffer":0,"byteLength":22728,"byteOffset":0,"byteStride":12,"target":34962},{"name":"bufferView_1","buffer":0,"byteLength":7576,"byteOffset":22728,"byteStride":8,"target":34962},{"name":"bufferView_2","buffer":0,"byteLength":9504,"byteOffset":30304,"target":34963},{"buffer":0,"byteOffset":39808,"byteLength":88314},{"buffer":0,"byteOffset":128122,"byteLength":14705},{"buffer":0,"byteOffset":142827,"byteLength":15343}],"images":[{"name":"Cylinder_Material - Default Texture","mimeType":"image/png","bufferView":3},{"name":"Top_Material - Default Texture","mimeType":"image/jpeg","bufferView":4},{"name":"Bottom_Material - Default Texture","mimeType":"image/jpeg","bufferView":5}],"materials":[{"name":"Cylinder_Material","pbrMetallicRoughness":{"baseColorTexture":{"index":0},"baseColorFactor":[1,1,1,1],"metallicFactor":0,"roughnessFactor":0.488},"emissiveFactor":[0,0,0],"alphaMode":"BLEND","doubleSided":true},{"name":"Top_Material","pbrMetallicRoughness":{"baseColorTexture":{"index":1},"baseColorFactor":[1,1,1,1],"metallicFactor":0,"roughnessFactor":0.968},"emissiveFactor":[0,0,0],"alphaMode":"OPAQUE","doubleSided":false},{"name":"Bottom_Material","pbrMetallicRoughness":{"baseColorTexture":{"index":2},"baseColorFactor":[1,1,1,1],"metallicFactor":0,"roughnessFactor":0.968},"emissiveFactor":[0,0,0],"alphaMode":"OPAQUE","doubleSided":false}],"meshes":[{"name":"Cylinder_1","primitives":[{"attributes":{"POSITION":0,"NORMAL":1,"TEXCOORD_0":2},"indices":3,"material":0,"mode":4},{"attributes":{"POSITION":0,"NORMAL":1,"TEXCOORD_0":2},"indices":4,"material":1,"mode":4},{"attributes":{"POSITION":0,"NORMAL":1,"TEXCOORD_0":2},"indices":5,"material":2,"mode":4}]}],"nodes":[{"name":"Cylinder","mesh":0}],"samplers":[{"magFilter":9729,"minFilter":9986,"wrapS":10497,"wrapT":10497}],"scene":0,"scenes":[{"nodes":[0]}],"textures":[{"name":"Cylinder_Material - Default Texture","sampler":0,"source":0},{"name":"Top_Material - Default Texture","sampler":0,"source":1},{"name":"Bottom_Material - Default Texture","sampler":0,"source":2}]}
